<?xml version="1.0" encoding="iso-8859-1"?>
<!-- Uploaded to: SVG Repo, www.svgrepo.com, Generator: SVG Repo Mixer Tools -->
<svg version="1.1" id="Layer_1" xmlns="http://www.w3.org/2000/svg" xmlns:xlink="http://www.w3.org/1999/xlink" 
	 viewBox="0 0 504.123 504.123" xml:space="preserve">
<circle style="fill:#324A5E;" cx="252.062" cy="252.062" r="252.062"/>
<g>
	<rect x="142.178" y="90.585" style="fill:#ACB3BA;" width="14.966" height="36.628"/>
	<rect x="176.443" y="90.585" style="fill:#ACB3BA;" width="14.966" height="36.628"/>
	<rect x="210.314" y="90.585" style="fill:#ACB3BA;" width="14.966" height="36.628"/>
	<rect x="244.578" y="90.585" style="fill:#ACB3BA;" width="14.966" height="36.628"/>
	<rect x="278.449" y="90.585" style="fill:#ACB3BA;" width="14.966" height="36.628"/>
	<rect x="312.714" y="90.585" style="fill:#ACB3BA;" width="14.966" height="36.628"/>
	<rect x="346.585" y="90.585" style="fill:#ACB3BA;" width="14.966" height="36.628"/>
	<rect x="142.178" y="376.911" style="fill:#ACB3BA;" width="14.966" height="36.628"/>
	<rect x="176.443" y="376.911" style="fill:#ACB3BA;" width="14.966" height="36.628"/>
	<rect x="210.314" y="376.911" style="fill:#ACB3BA;" width="14.966" height="36.628"/>
	<rect x="244.578" y="376.911" style="fill:#ACB3BA;" width="14.966" height="36.628"/>
	<rect x="278.449" y="376.911" style="fill:#ACB3BA;" width="14.966" height="36.628"/>
	<rect x="312.714" y="376.911" style="fill:#ACB3BA;" width="14.966" height="36.628"/>
	<rect x="346.585" y="376.911" style="fill:#ACB3BA;" width="14.966" height="36.628"/>
	<rect x="376.911" y="142.178" style="fill:#ACB3BA;" width="36.628" height="14.966"/>
	<rect x="376.911" y="176.443" style="fill:#ACB3BA;" width="36.628" height="14.966"/>
	<rect x="376.911" y="210.314" style="fill:#ACB3BA;" width="36.628" height="14.966"/>
	<rect x="376.911" y="244.578" style="fill:#ACB3BA;" width="36.628" height="14.966"/>
	<rect x="376.911" y="278.449" style="fill:#ACB3BA;" width="36.628" height="14.966"/>
	<rect x="376.911" y="312.714" style="fill:#ACB3BA;" width="36.628" height="14.966"/>
	<rect x="376.911" y="346.585" style="fill:#ACB3BA;" width="36.628" height="14.966"/>
	<rect x="90.585" y="142.178" style="fill:#ACB3BA;" width="36.628" height="14.966"/>
	<rect x="90.585" y="176.443" style="fill:#ACB3BA;" width="36.628" height="14.966"/>
	<rect x="90.585" y="210.314" style="fill:#ACB3BA;" width="36.628" height="14.966"/>
	<rect x="90.585" y="244.578" style="fill:#ACB3BA;" width="36.628" height="14.966"/>
	<rect x="90.585" y="278.449" style="fill:#ACB3BA;" width="36.628" height="14.966"/>
	<rect x="90.585" y="312.714" style="fill:#ACB3BA;" width="36.628" height="14.966"/>
	<rect x="90.585" y="346.585" style="fill:#ACB3BA;" width="36.628" height="14.966"/>
</g>
<path style="fill:#E6E9EE;" d="M367.065,380.849H137.058c-7.483,0-13.785-5.908-13.785-13.785V137.058
	c0-7.483,5.908-13.785,13.785-13.785h230.006c7.483,0,13.785,5.908,13.785,13.785v230.006
	C380.849,374.548,374.548,380.849,367.065,380.849z"/>
<path style="fill:#ACB3BA;" d="M142.966,142.966v218.191h218.191V142.966H142.966z M353.28,353.28H150.843V150.843H353.28V353.28z"
	/>
<circle style="fill:#FFD55C;" cx="252.062" cy="252.062" r="78.375"/>
<g>
	<path style="fill:#FFB82C;" d="M252.062,181.563c-38.991,0-70.498,31.508-70.498,70.498s31.508,70.498,70.498,70.498
		s70.498-31.508,70.498-70.498S291.052,181.563,252.062,181.563z M252.062,314.683c-34.658,0-62.622-27.963-62.622-62.622
		s27.963-62.622,62.622-62.622s62.622,27.963,62.622,62.622S286.72,314.683,252.062,314.683z"/>
	<path style="fill:#FFB82C;" d="M247.335,276.874v-22.843c-7.089-1.969-12.603-5.12-15.754-9.452
		c-3.151-4.332-5.12-9.058-5.12-14.966s1.969-11.028,5.514-14.966c3.938-3.938,8.665-6.302,14.966-7.089v-5.514h7.877v5.514
		c5.908,0.788,10.24,2.757,13.785,5.908c3.545,3.151,5.514,7.483,6.695,12.997l-13.785,1.969c-0.788-4.332-3.151-7.089-6.695-8.665
		v21.268c8.665,2.363,14.572,5.514,17.723,9.058c3.151,3.938,4.726,8.665,4.726,14.572c0,6.695-1.969,12.209-5.908,16.542
		c-3.938,4.726-9.452,7.483-16.542,8.271v10.24h-7.877v-9.846c-6.302-0.788-11.422-3.151-15.36-7.089
		c-3.938-3.938-6.302-9.452-7.483-16.542l14.178-1.575c0.394,2.757,1.575,5.514,3.151,7.483
		C243.791,274.511,245.366,275.692,247.335,276.874z M247.335,219.372c-1.969,0.788-3.938,1.969-5.12,3.545
		c-1.182,1.575-1.969,3.545-1.969,5.908c0,1.969,0.394,3.545,1.575,5.514c1.182,1.575,2.757,3.151,5.12,3.938v-18.905H247.335z
		 M255.212,277.662c2.757-0.394,5.12-1.969,6.695-3.938c1.575-1.969,2.757-4.332,2.757-7.089c0-2.363-0.788-4.726-1.969-6.302
		c-1.575-1.575-3.938-3.151-7.089-3.938v21.268H255.212z"/>
</g>
</svg>