<svg xmlns="http://www.w3.org/2000/svg" viewBox="0 0 512 512"><defs><style>.cls-1{fill:#f7bb38;}.cls-2{fill:#00b564;}.cls-3{fill:#04a055;}.cls-13,.cls-4,.cls-8,.cls-9{fill:none;}.cls-13,.cls-4{stroke:#b0d46c;stroke-width:4px;}.cls-4,.cls-8{stroke-linejoin:round;}.cls-5{fill:#fff;}.cls-6{fill:#037f3e;}.cls-7{fill:#02934d;}.cls-8{stroke:#32314b;stroke-width:6px;}.cls-8,.cls-9{stroke-linecap:round;}.cls-9{stroke:#fff;stroke-width:5px;}.cls-13,.cls-9{stroke-miterlimit:10;}.cls-10{fill:#32314b;}.cls-11{fill:#27273d;}.cls-12{fill:#4f4f74;}.cls-14{fill:#f6c752;}</style></defs><title>50-Computer-Hardware</title><g id="BULINE"><circle class="cls-1" cx="256" cy="256" r="256"/></g><g id="Icons"><rect class="cls-2" x="104.82" y="58.83" width="311.26" height="390.17" rx="14.52"/><rect class="cls-3" x="130.37" y="91.71" width="258.8" height="324.41" rx="12.07"/><line class="cls-4" x1="189.63" y1="339.95" x2="189.63" y2="314.01"/><line class="cls-4" x1="207.16" y1="339.95" x2="207.16" y2="314.01"/><line class="cls-4" x1="224.7" y1="339.95" x2="224.7" y2="314.01"/><line class="cls-4" x1="242.23" y1="339.95" x2="242.23" y2="314.01"/><line class="cls-4" x1="259.77" y1="339.95" x2="259.77" y2="314.01"/><line class="cls-4" x1="277.3" y1="339.95" x2="277.3" y2="314.01"/><line class="cls-4" x1="294.84" y1="339.95" x2="294.84" y2="314.01"/><line class="cls-4" x1="312.37" y1="339.95" x2="312.37" y2="314.01"/><line class="cls-4" x1="329.91" y1="339.95" x2="329.91" y2="314.01"/><line class="cls-4" x1="189.63" y1="382.88" x2="189.63" y2="356.94"/><line class="cls-4" x1="207.16" y1="382.88" x2="207.16" y2="356.94"/><line class="cls-4" x1="224.7" y1="382.88" x2="224.7" y2="356.94"/><line class="cls-4" x1="242.23" y1="382.88" x2="242.23" y2="356.94"/><line class="cls-4" x1="259.77" y1="382.88" x2="259.77" y2="356.94"/><line class="cls-4" x1="277.3" y1="382.88" x2="277.3" y2="356.94"/><line class="cls-4" x1="294.84" y1="382.88" x2="294.84" y2="356.94"/><line class="cls-4" x1="312.37" y1="382.88" x2="312.37" y2="356.94"/><line class="cls-4" x1="329.91" y1="382.88" x2="329.91" y2="356.94"/><polyline class="cls-4" points="128.01 379.59 128.01 323.69 164.55 287.15 164.55 171.9 125.82 163.5 125.82 78.38 395.49 78.38 395.49 228.98 324.46 228.98 324.46 302.14 387.9 302.14 387.9 424.8 332.1 417.58"/><rect class="cls-5" x="162.36" y="329.63" width="196.18" height="20.64" rx="8.13"/><rect class="cls-6" x="135.51" y="95.73" width="249.88" height="20.64" rx="10.32"/><rect class="cls-6" x="135.51" y="136.65" width="249.88" height="20.64" rx="10.32"/><rect class="cls-5" x="162.36" y="370.55" width="196.18" height="20.64" rx="8.13"/><rect class="cls-7" x="104.72" y="210.08" width="46.58" height="51.51" rx="3.81"/><rect class="cls-7" x="104.72" y="269.08" width="29.9" height="33.06" rx="3.81"/><rect class="cls-7" x="104.72" y="178.84" width="23.29" height="24.11" rx="3.81"/><rect class="cls-5" x="135.51" y="134.91" width="23.29" height="24.11" rx="3.81"/><rect class="cls-5" x="362.1" y="134.91" width="23.29" height="24.11" rx="3.81"/><rect class="cls-5" x="135.51" y="94" width="23.29" height="24.11" rx="3.81"/><rect class="cls-5" x="362.1" y="94" width="23.29" height="24.11" rx="3.81"/><rect class="cls-8" x="268.49" y="171.9" width="114.35" height="114.35"/><line class="cls-9" x1="285.63" y1="204.6" x2="363.3" y2="204.6"/><line class="cls-9" x1="285.63" y1="220.49" x2="363.3" y2="220.49"/><line class="cls-9" x1="285.63" y1="236.38" x2="363.3" y2="236.38"/><line class="cls-9" x1="285.63" y1="252.27" x2="363.3" y2="252.27"/><line class="cls-9" x1="332.1" y1="185.42" x2="332.1" y2="273.14"/><line class="cls-9" x1="313.47" y1="185.42" x2="313.47" y2="273.14"/><rect class="cls-10" x="296.03" y="191.08" width="56.87" height="75.99" rx="3.73"/><path class="cls-11" d="M313.45,267.07h-13.7a3.72,3.72,0,0,1-3.72-3.74V194.81a3.72,3.72,0,0,1,3.72-3.73h13.7a3.72,3.72,0,0,0-3.72,3.73v68.52A3.72,3.72,0,0,0,313.45,267.07Z"/><circle class="cls-12" cx="342.51" cy="212.27" r="4.38"/><circle class="cls-12" cx="342.51" cy="203.14" r="3.11"/><line class="cls-8" x1="172.64" y1="339.95" x2="346.9" y2="339.95"/><line class="cls-8" x1="172.64" y1="380.87" x2="346.9" y2="380.87"/><rect class="cls-10" x="158.8" y="414.11" width="124.16" height="21.37" rx="5.82"/><rect class="cls-5" x="95.92" y="204.6" width="46.58" height="51.51" rx="3.81"/><rect class="cls-5" x="95.92" y="263.6" width="29.9" height="33.06" rx="3.81"/><rect class="cls-5" x="95.92" y="173.36" width="23.29" height="24.11" rx="3.81"/><line class="cls-13" x1="128.01" y1="396.76" x2="128.01" y2="435.48"/><line class="cls-13" x1="146.28" y1="396.76" x2="146.28" y2="435.48"/><rect class="cls-14" x="373.75" y="323.69" width="28.31" height="92.43" rx="7.95"/><path class="cls-1" d="M389.73,416.12h-8a7.94,7.94,0,0,1-7.95-7.95V331.64a7.94,7.94,0,0,1,7.95-7.94h8a8,8,0,0,0-8,7.94v76.53A8,8,0,0,0,389.73,416.12Z"/><circle class="cls-10" cx="332.1" cy="417.58" r="17.9"/><circle class="cls-5" cx="332.1" cy="417.58" r="13.7"/><circle class="cls-10" cx="171.35" cy="78.38" r="12.06"/><circle class="cls-5" cx="171.35" cy="78.38" r="9.23"/><circle class="cls-10" cx="234.58" cy="78.38" r="12.06"/><circle class="cls-5" cx="234.58" cy="78.38" r="9.23"/><polyline class="cls-4" points="220.88 263.6 220.88 173.36 182.82 173.36 182.82 287.15 146.28 323.69 146.28 379.59"/><circle class="cls-10" cx="220.88" cy="204.6" r="17.9"/><circle class="cls-5" cx="220.88" cy="204.6" r="13.7"/><circle class="cls-10" cx="220.88" cy="261.59" r="17.9"/><circle class="cls-5" cx="220.88" cy="261.59" r="13.7"/></g></svg>