<?xml version="1.0" ?><svg xmlns="http://www.w3.org/2000/svg" xmlns:xlink="http://www.w3.org/1999/xlink" version="1.1" viewBox="0 0 512 512" style="enable-background:new 0 0 512 512;" xml:space="preserve"><g id="_x34_6_Maintaines"><g><linearGradient id="SVGID_1_" gradientUnits="userSpaceOnUse" x1="285.5213" y1="-214.3995" x2="226.0146" y2="892.425"><stop offset="0" style="stop-color:#EAE9FE"/><stop offset="0.4236" style="stop-color:#EEEEFE"/><stop offset="0.8967" style="stop-color:#FBFBFF"/><stop offset="1" style="stop-color:#FFFFFF"/></linearGradient><path style="fill:url(#SVGID_1_);" d="M472.914,264.735c-9.683-7.535-21.378-14.027-25.882-25.439    c-6.125-15.52,3.665-32.176,9.439-47.831c17.628-47.798-4.997-104.402-45.589-135.186    C333.443-2.449,182.282,18.136,161.159,99.307c-8.936,34.337,7.074,73.513-9.306,104.987    c-20.667,39.713-75.492,42.391-110.802,60.05c-43.746,21.878-52.499,69.515-21.125,105.783    c11.521,13.318,26.262,22.493,36.829,37.044c15.288,21.055,23.863,44.338,44.319,61.705c28.805,24.456,76.964,30.52,102.464,2.636    c14.36-15.702,19.032-38.836,34.706-53.226c20.633-18.942,53.243-16.394,79.499-6.639c26.255,9.755,50.606,25.505,78.261,29.944    c43.239,6.94,89.601-18.431,107.066-58.591C520.534,342.84,507.476,291.629,472.914,264.735z"/><path style="fill:#EDEDED;" d="M501.161,236.587c0,50.332-40.686,91.083-90.948,91.083H106.129    c-50.264,0-91.083-40.752-91.083-91.083c0-50.197,40.819-90.948,91.083-90.948c0.068,0,0.133,0,0.133,0    c6.141,0,11.268-4.79,10.931-10.862c-0.54-11.606,0.473-23.614,4.184-36.502c13.021-45.746,53.3-79.951,100.731-83.796    c45.271-3.709,85.415,18.755,107.208,53.906c2.227,3.578,6.477,5.264,10.661,4.589c3.981-0.741,8.096-1.081,12.28-1.081    c38.525,0,70.1,30.361,73.743,67.943c0.405,4.184,3.441,7.758,7.488,8.836c18.285,4.859,34.41,15.25,46.217,29.284    C493.063,193.813,501.161,214.255,501.161,236.587z"/><path style="fill:#F9BB40;" d="M156.867,190.872l12.85,21.648c1.793,3.068,1.389,6.949-0.869,9.552l132.293,132.292l-16.67,16.67    l-132.35-132.348c-2.606,2.255-6.426,2.605-9.379,0.81l-21.53-12.618c-2.838-1.679-5.152-4.225-6.601-7.293l-13.484-29.346    c-1.391-3.126-0.756-6.773,1.676-9.205l9.03-9.03c2.431-2.431,6.194-3.068,9.378-1.504l28.767,14.064    C152.872,185.952,155.246,188.095,156.867,190.872z"/><path style="fill:#5EDB6B;" d="M322.815,326.344l79.246,79.245c18.325,18.325,18.325,48.036-0.001,66.362l0,0    c-18.326,18.326-48.037,18.326-66.363,0.001l-79.246-79.245c-6.762-6.762-6.762-17.726,0-24.488l41.875-41.874    C305.089,319.582,316.053,319.582,322.815,326.344z"/><path style="fill:#FF5859;" d="M197.882,479.027c-14.796,14.797-34.995,20.901-54.245,18.295    c-6.715-0.909-9.481-9.182-4.689-13.974l17.846-17.847c3.197-3.197,3.197-8.38,0-11.577l-24.939-24.939    c-3.197-3.197-8.38-3.197-11.577,0l-17.845,17.846c-4.792,4.792-13.065,2.027-13.974-4.689    c-2.606-19.251,3.498-39.45,18.294-54.247c18.16-18.161,44.445-23.214,67.178-15.188l129.24-129.245    c-8.057-22.702-3.006-48.986,15.156-67.149c14.796-14.797,34.994-20.9,54.245-18.294c6.715,0.909,9.481,9.182,4.689,13.973    l-17.845,17.846c-3.197,3.197-3.197,8.38,0,11.577l24.939,24.939c3.197,3.197,8.38,3.197,11.577,0l17.844-17.845    c4.792-4.792,13.065-2.026,13.974,4.689c2.606,19.251-3.497,39.449-18.293,54.246c-18.162,18.163-44.445,23.214-67.147,15.157    l-129.24,129.245C221.095,434.58,216.042,460.866,197.882,479.027z"/><path style="fill:#332E8E;" d="M434.749,143.93c-2.065-0.55-3.654-2.43-3.862-4.565c-3.936-40.587-38.477-72.382-78.633-72.382    c-4.581,0-9.013,0.39-13.067,1.145c-2.337,0.384-4.581-0.537-5.7-2.327c-23.786-38.375-66.64-59.936-111.777-56.215    c-49.101,3.98-91.319,39.084-105.053,87.332c-3.558,12.35-4.987,24.809-4.367,38.132c0.099,1.778-0.707,3.024-1.4,3.757    c-1.157,1.224-2.842,1.925-4.76,1.925c-52.931,0-95.996,43.001-95.996,95.858c0,52.931,43.065,95.993,95.996,95.993h100.982    l-34.52,34.522c-24.352-7.369-51.256-0.739-69.31,17.322c-15.442,15.442-22.619,36.719-19.688,58.376    c0.671,4.962,4.044,9.041,8.808,10.65c4.776,1.615,9.956,0.406,13.505-3.146l17.843-17.846c1.282-1.279,3.357-1.272,4.633,0    l24.941,24.937c0.617,0.62,0.959,1.442,0.959,2.318c0,0.873-0.339,1.694-0.959,2.315l-17.846,17.849    c-3.552,3.549-4.757,8.722-3.146,13.498c1.605,4.764,5.688,8.14,10.65,8.811c3.184,0.432,6.356,0.643,9.508,0.643    c18.275,0,35.696-7.158,48.868-20.33c18.057-18.057,24.685-44.958,17.319-69.313l28.262-28.264    c0.839,4.127,2.847,8.061,6.043,11.255l79.246,79.246c20.21,20.21,53.094,20.209,73.309,0c20.261-20.261,20.258-53.048,0-73.306    l-69.537-69.537h74.214c52.858,0,95.858-43.062,95.858-95.993c0-22.543-8.031-44.491-22.61-61.793    C470.937,159.909,453.638,148.949,434.749,143.93z M208.44,413.48c7.612,21.571,2.107,45.936-14.029,62.075    c-13.258,13.258-31.539,19.416-50.114,16.9c-1.81-0.246-2.465-1.634-2.66-2.219c-0.201-0.591-0.524-2.107,0.783-3.414    l17.846-17.846c2.475-2.475,3.837-5.761,3.837-9.262s-1.362-6.787-3.837-9.262l-24.941-24.937c-2.551-2.554-5.905-3.83-9.259-3.83    c-3.354,0-6.711,1.276-9.262,3.83L98.962,443.36c-1.314,1.308-2.839,0.982-3.418,0.783c-0.585-0.195-1.973-0.85-2.219-2.66    c-2.516-18.591,3.645-36.856,16.9-50.114c16.133-16.133,40.488-21.644,62.072-14.032c1.778,0.623,3.766,0.182,5.106-1.157    l129.239-129.246c1.34-1.34,1.79-3.328,1.157-5.115c-7.644-21.536-2.148-45.885,14-62.033    c13.258-13.258,31.539-19.419,50.111-16.9c1.81,0.246,2.465,1.634,2.66,2.219c0.201,0.591,0.524,2.11-0.783,3.418l-17.846,17.843    c-2.475,2.475-3.837,5.764-3.837,9.262c0.003,3.498,1.362,6.787,3.837,9.262l24.941,24.937c5.103,5.109,13.418,5.109,18.521,0    l17.843-17.846c1.304-1.308,2.823-0.988,3.421-0.783c0.585,0.198,1.969,0.854,2.216,2.66c2.516,18.591-3.645,36.856-16.9,50.114    c-16.148,16.152-40.501,21.648-62.03,14c-1.784-0.627-3.776-0.179-5.115,1.157c-148.559,148.144,18.277-18.383-129.239,129.246    C208.261,409.711,207.81,411.696,208.44,413.48z M165.375,225.542l74.387,74.387l-9.726,9.726l-74.444-74.442    c-0.956-0.956-2.212-1.439-3.472-1.439c-1.141,0-2.286,0.396-3.213,1.196c-1.004,0.876-2.494,1.01-3.68,0.288l-21.513-12.609    c-2.021-1.193-3.632-2.98-4.639-5.115l-13.463-29.295c-0.572-1.288-0.313-2.756,0.665-3.734l9.029-9.032    c0.969-0.966,2.475-1.186,3.747-0.563l28.799,14.077c2.056,0.991,3.664,2.459,4.773,4.361c0.006,0.01,0.013,0.022,0.019,0.032    l12.833,21.622c0.713,1.215,0.572,2.801-0.339,3.849C163.447,220.798,163.553,223.72,165.375,225.542z M398.587,468.48    c-16.42,16.42-42.997,16.421-59.418,0l-79.246-79.246c-4.424-4.424-4.753-11.356-1.085-16.213l44.274-44.277    c2.206-1.671,4.818-2.557,7.459-2.557c3.178,0,6.353,1.212,8.773,3.629l79.246,79.246    C415.008,425.479,415.014,452.059,398.587,468.48z M410.212,322.759h-84.047c-3.103-3.058-6.945-5.097-11.124-5.946l28.604-28.605    c24.327,7.411,51.211,0.783,69.281-17.293c15.442-15.442,22.619-36.719,19.688-58.376c-0.671-4.959-4.044-9.038-8.808-10.646    c-4.77-1.608-9.949-0.409-13.505,3.143l-17.843,17.846c-1.279,1.282-3.354,1.279-4.633,0l-24.937-24.937    c-0.62-0.617-0.962-1.442-0.962-2.318s0.342-1.698,0.959-2.315l17.846-17.846c3.552-3.552,4.757-8.728,3.146-13.505    c-1.608-4.764-5.688-8.137-10.65-8.808c-21.648-2.938-42.931,4.246-58.373,19.688c-18.073,18.07-24.694,44.958-17.293,69.284    l-50.857,50.859l-71.752-71.752c1.33-3.613,1.029-7.727-1.013-11.219l-12.84-21.632c-2.088-3.571-5.198-6.42-8.965-8.233    l-28.761-14.061c-5.045-2.475-11.078-1.496-15.014,2.439l-9.029,9.032c-3.878,3.878-4.936,9.636-2.67,14.726l13.508,29.391    c1.87,3.968,4.828,7.229,8.559,9.435l21.465,12.581c3.415,2.072,7.488,2.401,11.081,1.097l71.815,71.812l-6.159,6.159H106.13    c-47.515,0-86.174-38.656-86.174-86.171c0-47.442,38.659-86.037,86.309-86.037c4.47,0,8.757-1.819,11.759-4.994    c2.855-3.018,4.303-6.941,4.076-11.008c-0.566-12.191,0.742-23.611,4-34.928c12.625-44.347,51.368-76.596,96.408-80.247    c3.082-0.253,6.145-0.377,9.195-0.377c38.017,0,73.226,19.368,93.445,51.985c3.223,5.173,9.361,7.842,15.723,6.819    c3.574-0.662,7.404-0.997,11.385-0.997c35.158,0,65.403,27.895,68.856,63.507c0.604,6.234,5.071,11.5,11.116,13.108    c16.954,4.508,32.482,14.345,43.72,27.703c13.092,15.538,20.302,35.235,20.302,55.466    C496.249,284.103,457.653,322.759,410.212,322.759z"/><path style="fill:#332E8E;" d="M301.303,344.976c-1.918,1.918-1.918,5.026,0,6.944l78.754,78.754    c0.959,0.959,2.216,1.439,3.472,1.439c1.256,0,2.513-0.48,3.472-1.439c1.918-1.918,1.918-5.026,0-6.944l-78.754-78.754    C306.329,343.058,303.221,343.058,301.303,344.976z"/><path style="fill:#332E8E;" d="M282.031,371.192c-1.918-1.918-5.026-1.918-6.944,0c-1.918,1.918-1.918,5.026,0,6.944    l78.754,78.754c0.959,0.959,2.216,1.439,3.472,1.439c1.256,0,2.513-0.48,3.472-1.439c1.918-1.918,1.918-5.026,0-6.944    L282.031,371.192z"/></g></g><g id="Layer_1"/></svg>