<?xml version="1.0" ?><svg viewBox="0 0 64 64" xmlns="http://www.w3.org/2000/svg"><defs><style>.cls-1{fill:#94a1b2;fill-rule:evenodd;}.cls-2{fill:#f64f7d;}.cls-3{fill:#e0e5eb;}.cls-4{fill:#4f9ff6;}.cls-5{fill:#3f76d3;}</style></defs><g id="Networking"><path class="cls-1" d="M33,55V37a1,1,0,0,0-2,0V55a1,1,0,0,0,2,0Z"/><path class="cls-1" d="M37,33H55a1,1,0,0,0,0-2H37a1,1,0,0,0,0,2Z"/><path class="cls-1" d="M9.05,33H27a1,1,0,1,0,0-2h-18a1,1,0,1,0,0,2Z"/><path class="cls-1" d="M36.24,29.18l12.7-12.7a1,1,0,1,0-1.42-1.42l-12.7,12.7a1,1,0,0,0,1.42,1.42Z"/><path class="cls-1" d="M16.48,48.94l12.7-12.7a1,1,0,0,0-1.42-1.42l-12.7,12.7a1,1,0,1,0,1.42,1.42Z"/><path class="cls-1" d="M34.82,36.24l12.7,12.7a1,1,0,1,0,1.42-1.42l-12.7-12.7a1,1,0,0,0-1.42,1.42Z"/><path class="cls-1" d="M15.06,16.48l12.7,12.7a1,1,0,0,0,1.42,0,1,1,0,0,0,0-1.41L16.48,15.06a1,1,0,1,0-1.42,1.42Z"/><path class="cls-1" d="M33,23.61V12.45a1,1,0,0,0-2,0V23.61a1,1,0,0,0,2,0Z"/><path class="cls-2" d="M32,34.34a7.3,7.3,0,0,0-6.95,4.58,9.8,9.8,0,0,0,14-.05A7.79,7.79,0,0,0,32,34.34Z"/><path class="cls-3" d="M25.06,38.93A7.28,7.28,0,0,1,32,34.35a7.8,7.8,0,0,1,7,4.52A9.81,9.81,0,1,0,22.19,32,8.87,8.87,0,0,0,25,38.92Z"/><circle class="cls-2" cx="32" cy="28.66" r="2.59"/><path class="cls-4" d="M32,4a4.94,4.94,0,1,1-4.93,4.93A4.93,4.93,0,0,1,32,4Z"/><path class="cls-4" d="M32,50.14a4.93,4.93,0,1,1-4.93,4.93A4.93,4.93,0,0,1,32,50.14Z"/><path class="cls-4" d="M60,32a4.94,4.94,0,1,1-4.93-4.93A4.93,4.93,0,0,1,60,32Z"/><path class="cls-4" d="M13.87,32a4.94,4.94,0,1,1-4.94-4.93A4.93,4.93,0,0,1,13.87,32Z"/><path class="cls-4" d="M51.8,12.2a4.94,4.94,0,1,1-7,0A4.95,4.95,0,0,1,51.8,12.2Z"/><path class="cls-4" d="M19.18,44.82a4.94,4.94,0,1,1-7,0A4.95,4.95,0,0,1,19.18,44.82Z"/><path class="cls-4" d="M51.8,51.8a4.94,4.94,0,1,1,0-7A4.93,4.93,0,0,1,51.8,51.8Z"/><path class="cls-4" d="M19.18,19.18a4.94,4.94,0,1,1,0-7A4.95,4.95,0,0,1,19.18,19.18Z"/><path class="cls-5" d="M31.91,50.14a4.78,4.78,0,0,0-1.25.18,4.93,4.93,0,0,1,0,9.49A4.72,4.72,0,0,0,32,60a4.93,4.93,0,1,0,0-9.86Z"/><path class="cls-5" d="M48.36,43.38a5,5,0,0,0-1.39.19,5,5,0,0,1,2.15,1.25,5,5,0,0,1,0,7h0A5,5,0,0,1,47,53.06a4.93,4.93,0,0,0,4.83-8.23h0A5,5,0,0,0,48.36,43.38Z"/><path class="cls-5" d="M15.74,43.38a5,5,0,0,0-1.39.19,5,5,0,0,1,2.15,1.25,5,5,0,0,1,0,7h0a5,5,0,0,1-2.15,1.26,4.93,4.93,0,0,0,4.83-8.23h0A5,5,0,0,0,15.74,43.38Z"/><path class="cls-5" d="M55,27.07a5.32,5.32,0,0,0-1.26.18,4.94,4.94,0,0,1,0,9.5,4.93,4.93,0,1,0,1.34-9.68Z"/><path class="cls-5" d="M8.84,27.07a5.31,5.31,0,0,0-1.25.18,4.94,4.94,0,0,1,0,9.5,5.09,5.09,0,0,0,1.34.18,4.93,4.93,0,0,0,0-9.86Z"/><path class="cls-5" d="M48.36,10.76A4.67,4.67,0,0,0,47,11a4.92,4.92,0,0,1,2.15,8.23h0A5,5,0,0,1,47,20.44,4.94,4.94,0,0,0,51.8,12.2h0A5,5,0,0,0,48.36,10.76Z"/><path class="cls-5" d="M15.74,10.76a4.67,4.67,0,0,0-1.39.19,4.92,4.92,0,0,1,2.15,8.23h0a5,5,0,0,1-2.15,1.26,4.94,4.94,0,0,0,4.83-8.24h0A5,5,0,0,0,15.74,10.76Z"/><path class="cls-5" d="M32,4a4.67,4.67,0,0,0-1.34.19,4.93,4.93,0,0,1,0,9.49,5.56,5.56,0,0,0,1.34.19A4.94,4.94,0,0,0,32,4Z"/></g></svg>