<?xml version="1.0" encoding="utf-8"?>
<!-- Generator: Adobe Illustrator 24.0.0, SVG Export Plug-In . SVG Version: 6.00 Build 0)  -->
<svg version="1.1" id="Layer_1" xmlns="http://www.w3.org/2000/svg" xmlns:xlink="http://www.w3.org/1999/xlink" x="0px" y="0px"
	 viewBox="0 0 256 256" style="enable-background:new 0 0 256 256;" xml:space="preserve">
<style type="text/css">
	.st0{fill:#FC5D3D;}
	.st1{fill:#AFAFAF;}
	.st2{fill:#72C2E9;}
	.st3{fill:#FFFFFF;}
	.st4{fill:#EFEFEF;}
	.st5{fill:#878787;}
	.st6{fill:#F0C020;}
	.st7{fill:#F8E5B0;}
	.st8{fill:#B34F33;}
	.st9{fill:#FFCBC3;}
	.st10{fill:#FFB69F;}
	.st11{fill:#C5E5FE;}
	.st12{fill:#13BF6D;}
	.st13{fill:#F9E5AF;}
	.st14{fill:#7A7380;}
	.st15{fill:#72C1E8;}
	.st16{fill:#C5E5FF;}
	.st17{fill:#FFCBC2;}
	.st18{fill:#6E6D6C;}
	.st19{fill:#F2E1D7;}
	.st20{fill:#7D7B79;}
	.st21{fill:#D6C0B3;}
	.st22{fill:#76FFBB;}
	.st23{fill:#CF941C;}
	.st24{fill:#7C7B7A;}
	.st25{fill:#FEB69F;}
	.st26{fill:#E8A61E;}
	.st27{fill:#EFF0F0;}
	.st28{fill:#EDC21D;}
	.st29{fill:#4BA5C8;}
	.st30{fill:#E8A61F;}
	.st31{fill:#823A26;}
	.st32{fill:#4C4944;}
	.st33{fill:#4C4945;}
</style>
<g>
	<path class="st15" d="M29.846,162.884L7.799,124.696c-0.473-0.815,0.125-1.778,1.025-1.778h15.733
		C29.828,59.775,78.542,24.583,128.138,24.5c28.149-0.047,56.532,11.215,77.545,35.096l-9.029,9.029
		c-18.221-21.107-43.455-31.342-68.516-31.374c-42.769-0.054-85.008,29.608-90.843,85.667h15.634c0.909,0,1.494,0.969,1.029,1.773
		l-22.052,38.194C31.438,163.702,30.303,163.675,29.846,162.884z"/>
	<path class="st15" d="M50.317,196.404l9.029-9.029c18.211,21.095,43.474,31.33,68.521,31.373
		c42.783,0.074,85.001-29.59,90.838-85.666h-15.634c-0.906,0-1.496-0.965-1.029-1.773l22.051-38.195
		c0.469-0.815,1.604-0.789,2.061,0.002l22.047,38.188c0.472,0.816-0.123,1.778-1.026,1.778h-15.733
		c-5.27,63.135-54.003,98.31-103.575,98.418C99.695,231.561,71.342,220.297,50.317,196.404z"/>
	<polygon class="st4" points="172.36,184.46 172.36,91.005 152.895,71.54 83.64,71.54 83.64,184.46 	"/>
	<polygon class="st0" points="128,101.819 99.269,116.073 99.269,149.615 128,163.869 156.731,149.615 156.731,116.073 	"/>
	<path class="st9" d="M126.889,156.581l-20.563-10.203c-0.851-0.422-1.389-1.29-1.389-2.239v-13.812c0-1.381,1.119-2.5,2.5-2.5
		c1.381,0,2.5,1.119,2.5,2.5v12.261L128,151.55l6.91-3.428c1.239-0.614,2.737-0.109,3.351,1.128
		c0.614,1.237,0.108,2.737-1.128,3.351l-8.021,3.98C128.416,156.925,127.596,156.931,126.889,156.581z M142.74,147.028
		c-0.614-1.237-0.108-2.737,1.128-3.351l3.583-1.778c1.239-0.614,2.737-0.108,3.351,1.128c0.614,1.237,0.108,2.737-1.128,3.351
		l-3.583,1.778C144.851,148.771,143.353,148.263,142.74,147.028z"/>
	<path d="M27.05,123.13c1.36-16.27,5.69-31.21,12.89-44.4c0.65-1.21,0.21-2.73-1-3.39c-1.18-0.64-2.76-0.17-3.39,1
		c-7.19,13.17-11.65,28-13.27,44.08H8.819H8.78c-2.767,0-4.606,3.089-3.141,5.53l22.04,38.18c1.434,2.529,5.101,2.418,6.39,0
		l22.051-38.19c1.443-2.449-0.393-5.52-3.16-5.52H40.1c7.16-55.62,49.438-80.6,88.039-80.67c25.689,0.01,49.881,11.13,66.622,30.51
		c0.87,1,2.521,1.13,3.53,0.26c1.04-0.9,1.16-2.48,0.26-3.53c-18.444-21.343-44.138-32.24-70.412-32.24
		c-46.106,0-87.63,32.574-93.329,87.91c-0.167,1.462,1.009,2.76,2.48,2.76h13.359l-19.77,34.25L11.1,125.42h13.46
		C25.84,125.42,26.939,124.41,27.05,123.13z"/>
	<path d="M50.89,62.64C69.84,39.99,97.928,27,128.138,27c29.3,0.01,56.232,12.17,75.671,34.25c0.87,0.99,2.53,1.1,3.521,0.22
		c1.04-0.91,1.14-2.49,0.229-3.52C186.585,34.088,157.593,22,128.138,22l0,0c-15.548,0-30.693,3.41-44.268,9.55
		c-13.818,6.251-26.478,15.544-36.82,27.88c-0.863,1.025-0.77,2.62,0.32,3.52C48.392,63.834,49.981,63.72,50.89,62.64z"/>
	<path d="M41.54,71.08c1.138,0.777,2.708,0.467,3.47-0.66c0.78-1.14,0.48-2.7-0.66-3.48c-1.1-0.75-2.72-0.43-3.47,0.66
		c0,0.01-0.01,0.01-0.01,0.02C40.144,68.679,40.337,70.248,41.54,71.08z"/>
	<path d="M210.979,185.59v0.01c-0.788,1.171-0.44,2.726,0.67,3.46c1.106,0.754,2.677,0.504,3.471-0.66
		c0.77-1.14,0.479-2.7-0.66-3.47C213.35,184.18,211.729,184.49,210.979,185.59z"/>
	<path d="M228.95,132.87c-1.36,16.28-5.69,31.21-12.891,44.4c-0.669,1.235-0.19,2.734,1,3.39c1.181,0.64,2.75,0.17,3.391-1
		c7.189-13.16,11.649-27.99,13.27-44.08h13.46h0.04c2.735,0,4.604-3.046,3.14-5.53l-22.04-38.18c-1.458-2.571-5.128-2.357-6.39,0
		l-22.05,38.19c-0.01,0-0.01,0.01-0.01,0.01c-1.435,2.419,0.383,5.51,3.16,5.51h12.869c-7.17,55.62-49.432,80.6-88.032,80.67
		c-25.69-0.01-49.898-11.13-66.627-30.51c-0.87-1-2.521-1.13-3.53-0.26c-1.029,0.906-1.176,2.445-0.26,3.53
		c18.141,20.994,43.639,32.24,70.417,32.24c46.197,0,87.612-32.654,93.322-87.91c0.148-1.47-1.002-2.76-2.479-2.76h-13.36
		l19.771-34.25l19.779,34.25h-13.46C230.149,130.58,229.06,131.59,228.95,132.87z"/>
	<path d="M127.867,234L127.867,234c30.281,0,60.553-12.901,81.083-37.43c0.88-1.05,0.739-2.63-0.311-3.52
		c-1.03-0.85-2.68-0.7-3.53,0.31C186.17,216.01,158.077,229,127.867,229c-29.31-0.01-56.247-12.17-75.678-34.25
		c-0.87-0.99-2.529-1.1-3.529-0.22c-1.03,0.91-1.13,2.49-0.221,3.53C69.535,222.037,98.551,234,127.867,234z"/>
	<path d="M157.84,113.83l-7.79-3.86c-1.21-0.6-2.75-0.08-3.35,1.13c-0.61,1.23-0.11,2.73,1.13,3.35l3.277,1.623L128,127.537
		l-23.109-11.466L128,104.61l1.91,0.95c1.22,0.6,2.76,0.07,3.35-1.13c0.595-1.19,0.153-2.702-1.12-3.35l-3.03-1.5
		c-0.689-0.35-1.529-0.34-2.22,0c-0.52,0.258-28.269,14.016-28.782,14.286c-0.789,0.414-1.339,1.283-1.339,2.204v33.54
		c0,0.96,0.53,1.82,1.391,2.24l28.729,14.26c0.672,0.326,1.508,0.357,2.22,0l28.73-14.26c0.86-0.42,1.39-1.28,1.39-2.24v-33.54
		C159.229,115.105,158.651,114.233,157.84,113.83z M101.77,120.105l23.73,11.773v27.961l-23.73-11.779V120.105z M130.5,159.839
		v-27.961l23.729-11.773v27.954L130.5,159.839z"/>
	<path d="M138.87,110c1.14,0.586,2.71,0.18,3.35-1.13c0.591-1.183,0.162-2.704-1.13-3.35c-1.21-0.6-2.75-0.07-3.35,1.13
		C137.13,107.89,137.63,109.39,138.87,110z"/>
	<path d="M174.128,89.237l-19.465-19.465c-0.399-0.4-1.059-0.732-1.768-0.732H83.64c-1.381,0-2.5,1.119-2.5,2.5v112.92
		c0,1.381,1.119,2.5,2.5,2.5h88.721c1.381,0,2.5-1.119,2.5-2.5V91.005C174.86,90.324,174.533,89.643,174.128,89.237z
		 M155.396,77.575c7.179,7.179,5.353,5.353,10.929,10.93h-10.929V77.575z M86.14,181.959V74.04h64.256v16.965
		c0,1.381,1.119,2.5,2.5,2.5h16.965v88.455H86.14z"/>
</g>
</svg>
